<svg id="Layer_1" data-name="Layer 1" xmlns="http://www.w3.org/2000/svg" viewBox="0 0 778.46 778.45"><defs><style>.cls-1{fill:#fff;}</style></defs><path class="cls-1" d="M678.34,0H100.12A100.12,100.12,0,0,0,0,100.12V678.33A100.12,100.12,0,0,0,100.12,778.45H678.34A100.12,100.12,0,0,0,778.46,678.33V100.12A100.12,100.12,0,0,0,678.34,0ZM612.42,606.16q-62,0-124,.09a8.56,8.56,0,0,1-7.82-3.93q-61.05-82.2-122.31-164.25c-.39-.53-.83-1-1.41-1.72-13.83,14.8-27.59,29.48-41.31,44.21q-45.65,49-91.26,98.11c-7.49,8.05-15.05,16.05-22.38,24.24a9.24,9.24,0,0,1-7.78,3.34c-10.77-.17-21.55-.06-33.84-.06L340,413.5,160.37,172.31h7c39.5,0,79,.09,118.5-.11,5,0,8.08,1.41,11.1,5.46Q354,254.16,411.41,330.41c.78,1,1.65,2,2.83,3.46,2.31-2.45,4.46-4.7,6.58-7Q491.58,251,562.42,175.25a9.88,9.88,0,0,1,6.34-2.8c10.75-.28,21.51-.13,33.75-.13L431,356.6,618.15,605.89c-2.57.12-4.15.27-5.73.27Z"/><path class="cls-1" d="M560.92,575.39H547.85c-14.5,0-29-.1-43.49.08a7.72,7.72,0,0,1-7.05-3.51Q423.83,474.1,350.22,376.35L221.09,204.76c-.68-.9-1.3-1.83-2.36-3.33,1.82-.13,3.05-.29,4.28-.3,18,0,36,.06,54-.07a7.14,7.14,0,0,1,6.56,3.3Q354.7,299.61,426,394.72q66.17,88.36,132.31,176.74C559.08,572.47,559.72,573.56,560.92,575.39Z"/><path d="M431,356.6,602.51,172.32c-12.24,0-23-.15-33.75.13a9.88,9.88,0,0,0-6.34,2.8Q491.5,251,420.82,326.9c-2.12,2.27-4.27,4.52-6.58,7-1.18-1.43-2.05-2.41-2.83-3.46q-57.29-76.34-114.47-152.75c-3-4-6.11-5.49-11.1-5.46-39.5.2-79,.11-118.5.11h-7L340,413.5,160.31,606.19c12.29,0,23.07-.11,33.84.06a9.24,9.24,0,0,0,7.78-3.34c7.33-8.19,14.89-16.19,22.38-24.24q45.63-49.06,91.26-98.11c13.72-14.73,27.48-29.41,41.31-44.21.58.69,1,1.19,1.41,1.72q61.2,82.09,122.31,164.25a8.56,8.56,0,0,0,7.82,3.93q62-.18,124-.09c1.58,0,3.16-.15,5.73-.27ZM547.85,575.39c-14.5,0-29-.1-43.49.08a7.72,7.72,0,0,1-7.05-3.51Q423.83,474.1,350.22,376.35L221.09,204.76c-.68-.9-1.3-1.83-2.36-3.33,1.82-.13,3.05-.29,4.28-.3,18,0,36,.06,54-.07a7.14,7.14,0,0,1,6.56,3.3Q354.7,299.61,426,394.72q66.17,88.36,132.31,176.74c.76,1,1.4,2.1,2.6,3.93Z"/></svg>